<?xml version="1.0" encoding="UTF-8"?>
<svg version="1.1" xmlns="http://www.w3.org/2000/svg" width="96" height="96">
<path d="M0 0 C7.37180422 6.25614803 10.83942026 14.29257538 12.0390625 23.73046875 C12.22979434 27.54362993 12.26967232 31.35052735 12.2890625 35.16796875 C12.3096875 36.17923828 12.3303125 37.19050781 12.3515625 38.23242188 C12.38891228 45.38957334 11.9273824 50.76408615 6.7265625 56.10546875 C5.8396875 56.97171875 4.9528125 57.83796875 4.0390625 58.73046875 C3.0790082 60.19509704 2.14327055 61.67582712 1.2265625 63.16796875 C-2.87468134 69.47192667 -8.51522487 73.90412756 -15.703125 76.2578125 C-24.32317012 78.06235482 -32.30869753 77.09211649 -39.9609375 72.73046875 C-45.58524785 68.9150315 -48.78881604 64.76221167 -51.8046875 58.73046875 C-53.35112684 56.05554665 -55.5516736 54.61881073 -57.9609375 52.73046875 C-60.57890556 47.15030154 -60.25728918 41.44754986 -60.2109375 35.41796875 C-60.21867187 34.42345703 -60.22640625 33.42894531 -60.234375 32.40429688 C-60.20742076 22.14146919 -58.48174704 14.41088006 -52.9609375 5.73046875 C-52.125625 4.40015625 -52.125625 4.40015625 -51.2734375 3.04296875 C-37.59203495 -10.6384338 -15.37032684 -10.99820207 0 0 Z M-46.9609375 14.73046875 C-47.64271748 17.38766712 -47.64271748 17.38766712 -48.0859375 20.35546875 C-48.25351562 21.35835937 -48.42109375 22.36125 -48.59375 23.39453125 C-48.71492188 24.16539063 -48.83609375 24.93625 -48.9609375 25.73046875 C-32.14198549 32.45804955 -17.07833434 31.82926781 0.0390625 26.73046875 C1.20422953 23.33594881 0.86999563 21.38970978 -0.3359375 18.04296875 C-0.61179688 17.25535156 -0.88765625 16.46773437 -1.171875 15.65625 C-1.80503489 13.7576324 -1.80503489 13.7576324 -2.9609375 12.73046875 C-6.04005409 12.61686582 -9.09589216 12.5662777 -12.17578125 12.5625 C-13.10185684 12.5591716 -14.02793243 12.5558432 -14.98207092 12.55241394 C-16.94499208 12.54734067 -18.9079219 12.54500574 -20.87084961 12.54516602 C-23.88214261 12.54298058 -26.89306884 12.52483201 -29.90429688 12.50585938 C-31.80729041 12.50292539 -33.71028569 12.50094063 -35.61328125 12.5 C-36.51852036 12.49281448 -37.42375946 12.48562897 -38.35643005 12.47822571 C-39.6126693 12.48284065 -39.6126693 12.48284065 -40.89428711 12.48754883 C-41.63295517 12.48612381 -42.37162323 12.48469879 -43.13267517 12.48323059 C-45.21066586 12.57621834 -45.21066586 12.57621834 -46.9609375 14.73046875 Z M-37.9609375 38.73046875 C-38.2909375 40.05046875 -38.6209375 41.37046875 -38.9609375 42.73046875 C-37.6409375 43.06046875 -36.3209375 43.39046875 -34.9609375 43.73046875 C-34.6309375 42.41046875 -34.3009375 41.09046875 -33.9609375 39.73046875 C-35.2809375 39.40046875 -36.6009375 39.07046875 -37.9609375 38.73046875 Z M-12.9609375 38.73046875 C-13.2909375 39.72046875 -13.6209375 40.71046875 -13.9609375 41.73046875 C-13.6309375 42.39046875 -13.3009375 43.05046875 -12.9609375 43.73046875 C-11.6409375 43.40046875 -10.3209375 43.07046875 -8.9609375 42.73046875 C-9.2909375 41.41046875 -9.6209375 40.09046875 -9.9609375 38.73046875 C-10.9509375 38.73046875 -11.9409375 38.73046875 -12.9609375 38.73046875 Z M-51.9609375 39.73046875 C-52.45226043 45.01609446 -52.45226043 45.01609446 -50.6484375 49.73046875 C-48.85771579 50.98536995 -48.85771579 50.98536995 -45.9609375 50.73046875 C-45.8990625 51.72046875 -45.8990625 51.72046875 -45.8359375 52.73046875 C-43.89880419 59.37206868 -39.13938973 64.47221788 -33.15625 67.81640625 C-27.23202753 70.28307539 -21.8297679 70.35156968 -15.7734375 68.29296875 C-9.37760141 65.40225228 -4.6731659 60.19809033 -1.9609375 53.73046875 C-1.9609375 52.74046875 -1.9609375 51.75046875 -1.9609375 50.73046875 C-1.3421875 50.60671875 -0.7234375 50.48296875 -0.0859375 50.35546875 C2.23027082 49.85849519 2.23027082 49.85849519 4.0390625 47.73046875 C4.28119123 45.74918367 4.28119123 45.74918367 4.1640625 43.60546875 C4.1228125 42.32671875 4.0815625 41.04796875 4.0390625 39.73046875 C0.37543669 42.40392542 -1.73345407 44.80585509 -3.9609375 48.73046875 C-7.91938015 50.70969007 -12.65832486 50.29930924 -16.9609375 49.73046875 C-19.54697573 48.32704003 -20.93366705 46.92211248 -22.9609375 44.73046875 C-25.14583533 45.7448856 -26.92393452 46.69861401 -28.7578125 48.27734375 C-32.76063951 50.91750624 -37.34709506 50.35834639 -41.9609375 49.73046875 C-44.3359375 48.10546875 -44.3359375 48.10546875 -45.9609375 45.73046875 C-46.84719165 44.63928496 -47.74349433 43.55620401 -48.6484375 42.48046875 C-49.793125 41.11921875 -49.793125 41.11921875 -50.9609375 39.73046875 C-51.2909375 39.73046875 -51.6209375 39.73046875 -51.9609375 39.73046875 Z " fill="#000000" transform="translate(71.9609375,13.26953125)"/>
</svg>
